<?xml version="1.0" encoding="utf-8"?>
<!-- Uploaded to: SVG Repo, www.svgrepo.com, Generator: SVG Repo Mixer Tools -->
<svg fill="#000000" width="800px" height="800px" viewBox="0 0 32 32" version="1.1" xmlns="http://www.w3.org/2000/svg">
<title>plus</title>
<path d="M15.5 29.5c-7.18 0-13-5.82-13-13s5.82-13 13-13 13 5.82 13 13-5.82 13-13 13zM21.938 15.938c0-0.552-0.448-1-1-1h-4v-4c0-0.552-0.447-1-1-1h-1c-0.553 0-1 0.448-1 1v4h-4c-0.553 0-1 0.448-1 1v1c0 0.553 0.447 1 1 1h4v4c0 0.553 0.447 1 1 1h1c0.553 0 1-0.447 1-1v-4h4c0.552 0 1-0.447 1-1v-1z"></path>
</svg>